HIERARCHY
ROOT Hips
{
    OFFSET   0.000000   0.000000   0.000000
    CHANNELS 6 Xposition Yposition Zposition Zrotation Xrotation Yrotation
    JOINT Chest
    {
        OFFSET   0.000000   8.007230   0.000000
        CHANNELS 3 Zrotation Xrotation Yrotation
        JOINT Chest2
        {
            OFFSET   0.000000  22.077100   0.000000
            CHANNELS 3 Zrotation Xrotation Yrotation
            JOINT Neck
            {
                OFFSET   0.000000  23.254700   0.000000
                CHANNELS 3 Zrotation Xrotation Yrotation
                JOINT Head
                {
                    OFFSET   0.000010  14.370000   1.956610
                    CHANNELS 3 Zrotation Xrotation Yrotation
                    End Site
                    {
                        OFFSET   0.000000  19.566000   0.000000
                    }
                }
            }
            JOINT LeftCollar
            {
                OFFSET   3.911900  19.017000  -0.467063
                CHANNELS 3 Zrotation Xrotation Yrotation
                JOINT LeftShoulder
                {
                    OFFSET  10.383700   0.000000   0.000000
                    CHANNELS 3 Zrotation Xrotation Yrotation
                    JOINT LeftElbow
                    {
                        OFFSET  26.662100   0.001671   0.000522
                        CHANNELS 3 Zrotation Xrotation Yrotation
                        JOINT LeftWrist
                        {
                            OFFSET  28.869000   0.000037  -0.000114
                            CHANNELS 3 Zrotation Xrotation Yrotation
                            JOINT LeftFinger0
                            {
                                OFFSET   2.044650  -2.323450   3.252850
                                CHANNELS 3 Zrotation Xrotation Yrotation
                                JOINT LeftFinger01
                                {
                                    OFFSET   3.088140   0.000000   0.000000
                                    CHANNELS 3 Zrotation Xrotation Yrotation
                                    JOINT LeftFinger02
                                    {
                                        OFFSET   2.639460   0.000000   0.000000
                                        CHANNELS 3 Zrotation Xrotation Yrotation
                                        End Site
                                        {
                                            OFFSET   2.582190   0.000000   0.000000
                                        }
                                    }
                                }
                            }
                            JOINT LeftFinger1
                            {
                                OFFSET   8.364480   0.000000   3.252850
                                CHANNELS 3 Zrotation Xrotation Yrotation
                                JOINT LeftFinger11
                                {
                                    OFFSET   4.646930   0.000000   0.000000
                                    CHANNELS 3 Zrotation Xrotation Yrotation
                                    JOINT LeftFinger12
                                    {
                                        OFFSET   2.323470   0.000000   0.000000
                                        CHANNELS 3 Zrotation Xrotation Yrotation
                                        End Site
                                        {
                                            OFFSET   2.273050   0.000000   0.000000
                                        }
                                    }
                                }
                            }
                            JOINT LeftFinger2
                            {
                                OFFSET   8.364490   0.000016   1.078090
                                CHANNELS 3 Zrotation Xrotation Yrotation
                                JOINT LeftFinger21
                                {
                                    OFFSET   5.111620   0.000000   0.000000
                                    CHANNELS 3 Zrotation Xrotation Yrotation
                                    JOINT LeftFinger22
                                    {
                                        OFFSET   2.788150   0.000013   0.000000
                                        CHANNELS 3 Zrotation Xrotation Yrotation
                                        End Site
                                        {
                                            OFFSET   2.727660   0.000000   0.000000
                                        }
                                    }
                                }
                            }
                            JOINT LeftFinger3
                            {
                                OFFSET   7.899780   0.000016  -1.078090
                                CHANNELS 3 Zrotation Xrotation Yrotation
                                JOINT LeftFinger31
                                {
                                    OFFSET   4.646930   0.000000   0.000000
                                    CHANNELS 3 Zrotation Xrotation Yrotation
                                    JOINT LeftFinger32
                                    {
                                        OFFSET   2.323470   0.000000   0.000000
                                        CHANNELS 3 Zrotation Xrotation Yrotation
                                        End Site
                                        {
                                            OFFSET   2.273050   0.000000   0.000000
                                        }
                                    }
                                }
                            }
                            JOINT LeftFinger4
                            {
                                OFFSET   7.435080   0.000000  -3.252850
                                CHANNELS 3 Zrotation Xrotation Yrotation
                                JOINT LeftFinger41
                                {
                                    OFFSET   3.717550   0.000000   0.000000
                                    CHANNELS 3 Zrotation Xrotation Yrotation
                                    JOINT LeftFinger42
                                    {
                                        OFFSET   1.858760   0.000000   0.000000
                                        CHANNELS 3 Zrotation Xrotation Yrotation
                                        End Site
                                        {
                                            OFFSET   1.818440   0.000000   0.000000
                                        }
                                    }
                                }
                            }
                        }
                    }
                }
            }
            JOINT RightCollar
            {
                OFFSET  -3.911900  19.017000  -0.467064
                CHANNELS 3 Zrotation Xrotation Yrotation
                JOINT RightShoulder
                {
                    OFFSET -10.383700   0.000000   0.000000
                    CHANNELS 3 Zrotation Xrotation Yrotation
                    JOINT RightElbow
                    {
                        OFFSET -26.662100   0.001633   0.000260
                        CHANNELS 3 Zrotation Xrotation Yrotation
                        JOINT RightWrist
                        {
                            OFFSET -28.869000  -0.000045  -0.000080
                            CHANNELS 3 Zrotation Xrotation Yrotation
                            JOINT RightFinger0
                            {
                                OFFSET  -2.044660  -2.323490   3.252850
                                CHANNELS 3 Zrotation Xrotation Yrotation
                                JOINT RightFinger01
                                {
                                    OFFSET  -3.088140   0.000000   0.000000
                                    CHANNELS 3 Zrotation Xrotation Yrotation
                                    JOINT RightFinger02
                                    {
                                        OFFSET  -2.639450   0.000000   0.000000
                                        CHANNELS 3 Zrotation Xrotation Yrotation
                                        End Site
                                        {
                                            OFFSET  -2.582190   0.000000   0.000000
                                        }
                                    }
                                }
                            }
                            JOINT RightFinger1
                            {
                                OFFSET  -8.364480   0.000000   3.252850
                                CHANNELS 3 Zrotation Xrotation Yrotation
                                JOINT RightFinger11
                                {
                                    OFFSET  -4.646920   0.000000   0.000000
                                    CHANNELS 3 Zrotation Xrotation Yrotation
                                    JOINT RightFinger12
                                    {
                                        OFFSET  -2.323470   0.000000   0.000000
                                        CHANNELS 3 Zrotation Xrotation Yrotation
                                        End Site
                                        {
                                            OFFSET  -2.273050   0.000000   0.000000
                                        }
                                    }
                                }
                            }
                            JOINT RightFinger2
                            {
                                OFFSET  -8.364480   0.000000   1.078090
                                CHANNELS 3 Zrotation Xrotation Yrotation
                                JOINT RightFinger21
                                {
                                    OFFSET  -5.111610   0.000000   0.000000
                                    CHANNELS 3 Zrotation Xrotation Yrotation
                                    JOINT RightFinger22
                                    {
                                        OFFSET  -2.788160   0.000000   0.000000
                                        CHANNELS 3 Zrotation Xrotation Yrotation
                                        End Site
                                        {
                                            OFFSET  -2.727660   0.000000   0.000000
                                        }
                                    }
                                }
                            }
                            JOINT RightFinger3
                            {
                                OFFSET  -7.899780   0.000000  -1.078090
                                CHANNELS 3 Zrotation Xrotation Yrotation
                                JOINT RightFinger31
                                {
                                    OFFSET  -4.646930   0.000000   0.000000
                                    CHANNELS 3 Zrotation Xrotation Yrotation
                                    JOINT RightFinger32
                                    {
                                        OFFSET  -2.323470   0.000000   0.000000
                                        CHANNELS 3 Zrotation Xrotation Yrotation
                                        End Site
                                        {
                                            OFFSET  -2.273050   0.000000   0.000000
                                        }
                                    }
                                }
                            }
                            JOINT RightFinger4
                            {
                                OFFSET  -7.435090   0.000000  -3.252850
                                CHANNELS 3 Zrotation Xrotation Yrotation
                                JOINT RightFinger41
                                {
                                    OFFSET  -3.717550   0.000000   0.000000
                                    CHANNELS 3 Zrotation Xrotation Yrotation
                                    JOINT RightFinger42
                                    {
                                        OFFSET  -1.858760   0.000000   0.000000
                                        CHANNELS 3 Zrotation Xrotation Yrotation
                                        End Site
                                        {
                                            OFFSET  -1.818440   0.000000   0.000000
                                        }
                                    }
                                }
                            }
                        }
                    }
                }
            }
        }
    }
    JOINT LeftHip
    {
        OFFSET   9.782990   0.000000   0.000000
        CHANNELS 3 Zrotation Xrotation Yrotation
        JOINT LeftKnee
        {
            OFFSET  -0.000063 -41.789100   0.001657
            CHANNELS 3 Zrotation Xrotation Yrotation
            JOINT LeftAnkle
            {
                OFFSET   0.000078 -41.133200  -0.000113
                CHANNELS 3 Zrotation Xrotation Yrotation
                JOINT LeftToe
                {
                    OFFSET   0.000000  -6.358970  14.674500
                    CHANNELS 3 Zrotation Xrotation Yrotation
                    End Site
                    {
                        OFFSET   0.000000   0.000000   3.913200
                    }
                }
            }
        }
    }
    JOINT RightHip
    {
        OFFSET  -9.782990   0.000000   0.000000
        CHANNELS 3 Zrotation Xrotation Yrotation
        JOINT RightKnee
        {
            OFFSET   0.000053 -41.789200   0.000277
            CHANNELS 3 Zrotation Xrotation Yrotation
            JOINT RightAnkle
            {
                OFFSET   0.000030 -41.133200  -0.000150
                CHANNELS 3 Zrotation Xrotation Yrotation
                JOINT RightToe
                {
                    OFFSET   0.000000  -6.358960  14.674500
                    CHANNELS 3 Zrotation Xrotation Yrotation
                    End Site
                    {
                        OFFSET   0.000000   0.000000   3.913200
                    }
                }
            }
        }
    }
}
MOTION
Frames: 5
Frame Time:   0.016667
  2.192120  89.494300  -0.866337  -2.302010 -12.479600  -9.527300  -0.826429   7.124200   2.199590  -1.953130  14.210100   4.556720   0.899885  -0.571630   0.003881   1.478900  -1.158360   0.716482  -5.436100  -1.684140   2.684260 -72.010100  18.348500  -6.325490  -0.022980   0.083276 -17.240800  10.811600  -3.795370   4.250060  42.180300  38.688200 -69.995000 -32.184400   0.000000   0.000067 -11.092200   0.001563   0.000000 -30.776800   5.271110  -8.768900 -25.511900   0.008206   0.000834 -17.858400   0.011861   0.000455 -28.196400  -1.919170   3.574230 -33.863600  -0.000702   0.001640 -22.553100   0.011030  -0.000820 -27.836400  -1.896840   3.586120 -31.374400  -0.009928   0.000397 -20.895300   0.000567   0.000220 -28.846900  -1.959540   3.552270 -43.361500  -0.002114   0.000178 -28.878800  -0.000310  -0.009955  11.442700   0.343718   8.523580  66.588400   6.585790  -4.519110  -4.787750  -2.638880  17.639300  -9.553530  -4.537850   5.301850 -42.632800  33.664200  66.570100  26.004000  -0.002870  -0.002927   8.002020  -0.003606   0.007907  37.176700  11.303800  14.495200  31.598500  -0.002375   0.011671  22.118900  -0.001178   0.007700  35.392600   4.723480   6.605010  53.498400   0.000254  -0.000839  35.629900   0.004343   0.002868  30.913000   3.491760   5.807610  46.635200  -0.003246   0.004757  31.059000   0.003855   0.002490  39.821800  -1.022860  -1.226530  59.749200  -0.001913  -0.004045  39.793000   0.005578  -0.003052  -1.002390  15.137700   7.451660   0.476133   0.297359   3.534750   0.739656  -4.001850   4.805970   0.000000   0.000000  -0.000000   1.138450  10.455400   4.563090  -2.964810   6.816440  -8.906800   1.703460  -4.850470   1.591300   0.000000   0.000000   0.000000
  2.173380  89.494300  -0.849215  -2.285710 -12.479400  -9.533740  -0.832367   7.130830   2.194220  -1.964850  14.223200   4.546740   0.882191  -0.538780   0.003952   1.449810  -1.091730   0.713023  -5.430540  -1.684870   2.683110 -71.998000  18.356900  -6.330090  -0.025501   0.076047 -17.251300  10.824200  -3.796870   4.242610  42.147000  38.659300 -69.971500 -32.194400   0.000000   0.000070 -11.097200   0.001563  -0.000000 -30.792500   5.270950  -8.763260 -25.524600   0.008206   0.000834 -17.867200   0.011862   0.000459 -28.196000  -1.921930   3.579040 -33.882200  -0.000705   0.001639 -22.565500   0.011034  -0.000820 -27.836000  -1.899650   3.590910 -31.394500  -0.009932   0.000405 -20.908800   0.000563   0.000220 -28.862100  -1.963260   3.556560 -43.384500  -0.002114   0.000180 -28.894100  -0.000311  -0.009952  11.432200   0.328149   8.522490  66.530400   6.658860  -4.568830  -4.847600  -2.641580  17.747600  -9.511040  -4.553530   5.308080 -42.619800  33.674600  66.587500  26.017600  -0.002874  -0.002937   8.008820  -0.003603   0.007911  37.166200  11.303700  14.495200  31.589600  -0.002362   0.011669  22.112700  -0.001181   0.007703  35.348500   4.723470   6.620480  53.433000   0.000253  -0.000839  35.586300   0.004341   0.002851  30.887200   3.479470   5.793120  46.594900  -0.003249   0.004757  31.032200   0.003855   0.002482  39.798300  -1.016020  -1.219380  59.713700  -0.001908  -0.004055  39.769300   0.005577  -0.003059  -1.004340  15.138900   7.459690   0.476241   0.325174   3.541510   0.726934  -4.028090   4.798810   0.000000   0.000000   0.000000   1.130530  10.482100   4.569720  -2.959990   6.796590  -8.905780   1.694540  -4.858430   1.591250  -0.000000   0.000000  -0.000000
  2.143030  89.494400  -0.821179  -2.268020 -12.479000  -9.545550  -0.840708   7.143150   2.188080  -1.981440  14.247600   4.535800   0.851506  -0.483774   0.004077   1.399410  -0.980182   0.688897  -5.419890  -1.689970   2.675360 -71.976500  18.375100  -6.339650  -0.030135   0.061993 -17.269500  10.845200  -3.800210   4.230510  42.117800  38.630300 -69.948200 -32.204400   0.000000   0.000074 -11.102200   0.001558   0.000000 -30.808200   5.270780  -8.757620 -25.537200   0.008208   0.000837 -17.876000   0.011863   0.000467 -28.195600  -1.924700   3.583850 -33.900700  -0.000715   0.001638 -22.577900   0.011045  -0.000817 -27.835600  -1.902450   3.595700 -31.414700  -0.009947   0.000412 -20.922200   0.000552   0.000219 -28.879900  -1.966990   3.560840 -43.411600  -0.002115   0.000181 -28.912100  -0.000313  -0.009948  11.413900   0.287194   8.515910  66.429200   6.784970  -4.670600  -4.961880  -2.654070  17.964500  -9.425800  -4.592690   5.326590 -42.608600  33.681600  66.608200  26.048300  -0.002877  -0.002954   8.024140  -0.003596   0.007916  37.155700  11.303600  14.495200  31.580600  -0.002344   0.011664  22.106400  -0.001188   0.007714  35.304500   4.723510   6.635950  53.367500   0.000250  -0.000838  35.542700   0.004339   0.002810  30.850300   3.453230   5.758060  46.535900  -0.003254   0.004757  30.992900   0.003856   0.002463  39.758400  -1.004440  -1.207260  59.653500  -0.001896  -0.004082  39.729200   0.005573  -0.003080  -1.006470  15.149400   7.471810   0.476614   0.352987   3.554610   0.706785  -4.063750   4.786530  -0.000000   0.000000   0.000000   1.121340  10.520200   4.578370  -2.951570   6.774210  -8.902310   1.680360  -4.871540   1.591200  -0.000000   0.000000   0.000000
  2.120830  89.494400  -0.799806  -2.267620 -12.480400  -9.556150  -0.843859   7.155570   2.187210  -1.988060  14.272400   4.534910   0.824262  -0.439472   0.004217   1.354750  -0.890414   0.623617  -5.408440  -1.702110   2.657520 -71.957100  18.398600  -6.351030  -0.033572   0.046541 -17.285700  10.862500  -3.804900   4.221430  42.121900  38.630400 -69.948500 -32.200400   0.000000   0.000037 -11.100200   0.001547  -0.000000 -30.805400   5.273090  -8.762380 -25.535200   0.008213   0.000852 -17.874600   0.011865   0.000477 -28.195700  -1.923060   3.580840 -33.897500  -0.000734   0.001643 -22.575800   0.011063  -0.000811 -27.835800  -1.900810   3.592690 -31.410700  -0.009975   0.000406 -20.919600   0.000536   0.000230 -28.883100  -1.965510   3.557740 -43.416400  -0.002117   0.000181 -28.915300  -0.000314  -0.009949  11.397900   0.223960   8.501310  66.338500   6.893050  -4.789520  -5.080860  -2.677640  18.206200  -9.325710  -4.647910   5.358200 -42.562600  33.645600  66.590100  26.095900  -0.002869  -0.002969   8.047950  -0.003587   0.007915  37.166900  11.303800  14.490400  31.589400  -0.002340   0.011656  22.112500  -0.001201   0.007734  35.304500   4.723590   6.635950  53.367500   0.000248  -0.000840  35.542700   0.004340   0.002753  30.830100   3.417120   5.702460  46.501500  -0.003260   0.004755  30.970000   0.003854   0.002433  39.725200  -0.994858  -1.197150  59.603500  -0.001874  -0.004127  39.695900   0.005567  -0.003114  -1.002270  15.187200   7.478760   0.478432   0.325800   3.568280   0.693169  -4.071790   4.775650  -0.000000   0.000000  -0.000000   1.125130  10.533600   4.580430  -2.945090   6.772600  -8.896130   1.670500  -4.881840   1.591210  -0.000000   0.000000  -0.000000
  2.099310  89.494400  -0.779030  -2.270750 -12.482900  -9.570350  -0.844893   7.169800   2.187140  -1.991050  14.300800   4.535290   0.795964  -0.394384   0.004305   1.308170  -0.799101   0.502038  -5.395310  -1.720290   2.631440 -71.935500  18.427100  -6.365230  -0.035342   0.028681 -17.302100  10.879200  -3.810140   4.212840  42.126900  38.631300 -69.950600 -32.192900   0.000000  -0.000000 -11.096500   0.001533  -0.000000 -30.798400   5.276750  -8.770770 -25.530000   0.008219   0.000876 -17.871000   0.011867   0.000490 -28.195900  -1.920250   3.575760 -33.888900  -0.000758   0.001649 -22.570000   0.011087  -0.000801 -27.836100  -1.897980   3.587610 -31.399700  -0.010013   0.000399 -20.912200   0.000513   0.000247 -28.883900  -1.962770   3.552620 -43.417100  -0.002121   0.000182 -28.915800  -0.000316  -0.009950  11.380200   0.140619   8.479690  66.241500   7.010160  -4.935510  -5.222680  -2.716940  18.507200  -9.211370  -4.725780   5.400160 -42.484700  33.592900  66.537900  26.140400  -0.002853  -0.002983   8.070230  -0.003575   0.007914  37.193200  11.304300  14.479300  31.609900  -0.002336   0.011644  22.126900  -0.001216   0.007759  35.304500   4.723620   6.635950  53.367600   0.000244  -0.000842  35.542900   0.004340   0.002687  30.823900   3.380100   5.643070  46.485800  -0.003270   0.004753  30.959500   0.003851   0.002393  39.691200  -0.985050  -1.186760  59.552200  -0.001847  -0.004188  39.661800   0.005559  -0.003157  -0.993626  15.227400   7.484900   0.480245   0.298612   3.585380   0.680301  -4.077210   4.764930   0.000000   0.000000   0.000000   1.134620  10.546600   4.581220  -2.939990   6.771060  -8.886760   1.661460  -4.891660   1.591230   0.000000   0.000000  -0.000000
